<svg id="Layer_1" data-name="Layer 1" xmlns="http://www.w3.org/2000/svg" xmlns:xlink="http://www.w3.org/1999/xlink" viewBox="0 0 1216 289"><defs><style>.cls-1,.cls-12,.cls-4,.cls-7{fill:#fff;}.cls-2{fill:#003057;}.cls-18,.cls-3{fill:#212c58;}.cls-13,.cls-15,.cls-4{opacity:0.8;}.cls-5{clip-path:url(#clip-path);}.cls-6{clip-path:url(#clip-path-2);}.cls-18,.cls-7{opacity:0.82;}.cls-8{clip-path:url(#clip-path-3);}.cls-9{clip-path:url(#clip-path-4);}.cls-10{clip-path:url(#clip-path-5);}.cls-11{clip-path:url(#clip-path-6);}.cls-12,.cls-23{opacity:0.85;}.cls-14{fill:#f8485e;}.cls-15,.cls-23,.cls-24{fill:#0071ce;}.cls-16{clip-path:url(#clip-path-7);}.cls-17{clip-path:url(#clip-path-8);}.cls-19{clip-path:url(#clip-path-9);}.cls-20{clip-path:url(#clip-path-10);}.cls-21{clip-path:url(#clip-path-11);}.cls-22{clip-path:url(#clip-path-12);}</style><clipPath id="clip-path"><polygon class="cls-1" points="-0.07 179.76 81.12 205.7 100.08 115.41 100.08 115.41 -0.07 179.76"/></clipPath><clipPath id="clip-path-2"><polygon class="cls-1" points="-0.07 179.76 63.65 288.75 81.12 205.7 -0.07 179.76"/></clipPath><clipPath id="clip-path-3"><polygon class="cls-1" points="-0.07 179.76 100.08 115.41 124.4 -0.3 124.4 -0.3 -0.07 179.76"/></clipPath><clipPath id="clip-path-4"><polygon class="cls-1" points="323.54 205.71 404.78 179.76 304.45 115.23 323.54 205.71"/></clipPath><clipPath id="clip-path-5"><polygon class="cls-1" points="323.54 205.71 341.05 288.75 404.78 179.76 323.54 205.71"/></clipPath><clipPath id="clip-path-6"><polygon class="cls-1" points="280.07 -0.3 304.45 115.23 404.78 179.76 280.07 -0.3"/></clipPath><clipPath id="clip-path-7"><polygon class="cls-2" points="-0.07 179.76 81.12 205.7 100.08 115.41 100.08 115.41 -0.07 179.76"/></clipPath><clipPath id="clip-path-8"><polygon class="cls-3" points="-0.07 179.76 63.65 288.75 81.12 205.7 -0.07 179.76"/></clipPath><clipPath id="clip-path-9"><polygon class="cls-3" points="-0.07 179.76 100.08 115.41 124.4 -0.3 124.4 -0.3 -0.07 179.76"/></clipPath><clipPath id="clip-path-10"><polygon class="cls-2" points="323.54 205.71 404.78 179.76 304.45 115.23 323.54 205.71"/></clipPath><clipPath id="clip-path-11"><polygon class="cls-3" points="323.54 205.71 341.05 288.75 404.78 179.76 323.54 205.71"/></clipPath><clipPath id="clip-path-12"><polygon class="cls-3" points="280.07 -0.3 304.45 115.23 404.78 179.76 280.07 -0.3"/></clipPath></defs><title>BoldbyDevoteam_logo</title><polygon class="cls-4" points="124.4 -0.3 200.84 48.79 280.07 -0.3 124.4 -0.3"/><polygon class="cls-1" points="-0.07 179.76 81.12 205.7 100.08 115.41 100.08 115.41 -0.07 179.76"/><g class="cls-5"><rect class="cls-1" x="-5.53" y="109.27" width="111.06" height="102.57" transform="translate(-20.49 7.88) rotate(-7.49)"/></g><polygon class="cls-1" points="-0.07 179.76 63.65 288.75 81.12 205.7 -0.07 179.76"/><g class="cls-6"><rect class="cls-7" x="-23.11" y="180.12" width="127.26" height="108.27" transform="translate(-195.77 208.11) rotate(-73.87)"/></g><polygon class="cls-1" points="-0.07 179.76 100.08 115.41 124.4 -0.3 124.4 -0.3 -0.07 179.76"/><g class="cls-8"><rect class="cls-7" x="-0.07" y="-0.3" width="124.47" height="180.06"/></g><polygon class="cls-1" points="323.54 205.71 404.78 179.76 304.45 115.23 323.54 205.71"/><g class="cls-9"><rect class="cls-1" x="297.88" y="100.27" width="113.47" height="120.41" transform="translate(107.39 461.11) rotate(-74.92)"/></g><polygon class="cls-1" points="323.54 205.71 341.05 288.75 404.78 179.76 323.54 205.71"/><g class="cls-10"><rect class="cls-1" x="320.37" y="177.43" width="87.58" height="113.64" transform="translate(-13.29 22.08) rotate(-3.41)"/></g><polygon class="cls-1" points="280.07 -0.3 304.45 115.23 404.78 179.76 280.07 -0.3"/><g class="cls-11"><rect class="cls-1" x="280.07" y="-0.3" width="124.71" height="180.06"/></g><polygon class="cls-4" points="404.78 179.76 202.34 244.44 341.05 288.75 404.78 179.76"/><polygon class="cls-12" points="124.4 -0.3 200.84 48.79 -0.07 179.76 124.4 -0.3"/><polygon class="cls-4" points="-0.07 179.76 202.34 244.44 63.65 288.75 -0.07 179.76"/><polygon class="cls-12" points="200.84 48.79 404.78 179.76 280.07 -0.3 200.84 48.79"/><polygon class="cls-1" points="63.65 288.75 63.65 288.75 341.05 288.75 202.34 244.44 63.65 288.75"/><g class="cls-13"><polygon class="cls-1" points="63.65 288.75 63.65 288.75 341.05 288.75 202.34 244.44 63.65 288.75"/></g><path class="cls-14" d="M687.53,198.85h8.25v17a120.91,120.91,0,0,1,13.84-1.2,34,34,0,0,1,6,.47,16,16,0,0,1,5.07,1.94,11.68,11.68,0,0,1,4.13,4,22.51,22.51,0,0,1,2.58,6.92,48.42,48.42,0,0,1,1,10.4,49.84,49.84,0,0,1-1,10.91,23.86,23.86,0,0,1-2.66,7.22,11.65,11.65,0,0,1-4.34,4.17,17.42,17.42,0,0,1-5.46,2,40.27,40.27,0,0,1-6.61.47,150.41,150.41,0,0,1-20.8-1.38Zm8.25,22.86v34.63H708q6.87,0,9.28-3.18t2.41-11.09V235.2q0-7.12-2.71-10.31t-9.84-3.18Z"/><path class="cls-14" d="M748.36,280.4l6.79-18.22h-3.27l-17.79-46.4h8.68L757,254.54h.77l14.61-38.76h8.16L756.52,280.4Z"/><path class="cls-14" d="M854.72,261.75a150.27,150.27,0,0,1-20.79,1.38,54.39,54.39,0,0,1-6.7-.34,19.37,19.37,0,0,1-5.42-1.64,9.81,9.81,0,0,1-4.38-3.74,22.8,22.8,0,0,1-2.58-6.87,48.16,48.16,0,0,1-1-10.78,50.59,50.59,0,0,1,1.33-12.59,16.45,16.45,0,0,1,4-7.74,15.11,15.11,0,0,1,5.84-3.69,23.59,23.59,0,0,1,7.56-1.08,102.4,102.4,0,0,1,13.93,1.2v-17h8.24Zm-19.67-40q-7,0-9.76,3.26t-2.7,10.4v6.79q0,7.91,2.4,11t9.28,3.05h12.21V221.71Z"/><path class="cls-14" d="M905.59,233.05v3.27a5.13,5.13,0,0,1-5.42,5.67H873.88v3.35q0,6.36,3.22,8.68t10.35,2.32h15.13v5.5a103.83,103.83,0,0,1-17.45,1.29q-11.43,0-15.64-5.42t-4.21-18q0-12.63,4.64-18.82t16.33-6.19Q905.59,214.66,905.59,233.05Zm-31.71,2.32h23.54V233a24.2,24.2,0,0,0-.26-3.87,14.45,14.45,0,0,0-1.11-3.57,6.09,6.09,0,0,0-2.84-3,10.91,10.91,0,0,0-5.07-1h-3.87c-3.72,0-6.38,1.08-8,3.26a13.28,13.28,0,0,0-2.4,8.08Z"/><path class="cls-14" d="M933.25,252.65l14.43-36.79h8.43l-18.82,46.32h-8.77l-19.25-46.32h8.51l15,36.79Z"/><path class="cls-14" d="M967.14,220.21q5.11-5.55,15.08-5.55h2.4q10,0,15,5.33t5,18.91q0,13.48-5.2,18.86t-14.83,5.37h-2.4a31.36,31.36,0,0,1-8.47-1,15.55,15.55,0,0,1-6.27-3.52,15,15,0,0,1-4.12-7.26A44.49,44.49,0,0,1,962,239.5Q962,225.75,967.14,220.21Zm28.74,17.14q0-8.94-2.28-12.42t-9.49-3.48h-1.55q-7,0-9.41,3.52t-2.36,12.38v3.35q0,8.94,2.19,12.42t9.07,3.48h2.66q6.1,0,8.64-3.4t2.53-10.27Z"/><path class="cls-14" d="M1028,248.61q0,4.38,1.8,6t6.36,1.68h9.8v5.5a57.06,57.06,0,0,1-12.38,1.46q-7.9,0-10.82-3.65t-2.93-11V221.88h-8.76v-5.07l9.19-1.12,2.75-13.23h5.07v13.32h15.21v6.1H1028Z"/><path class="cls-14" d="M1092.71,233.05v3.27a5.13,5.13,0,0,1-5.42,5.67H1061v3.35q0,6.36,3.22,8.68t10.36,2.32h15.12v5.5a103.75,103.75,0,0,1-17.45,1.29q-11.43,0-15.64-5.42t-4.21-18q0-12.63,4.64-18.82t16.33-6.19Q1092.71,214.66,1092.71,233.05ZM1061,235.37h23.54V233a25.54,25.54,0,0,0-.25-3.87,15,15,0,0,0-1.12-3.57,6,6,0,0,0-2.84-3,10.91,10.91,0,0,0-5.07-1h-3.86c-3.73,0-6.39,1.08-8,3.26a13.28,13.28,0,0,0-2.4,8.08Z"/><path class="cls-14" d="M1139.27,261.41a129.39,129.39,0,0,1-22.68,1.8q-3.78,0-6.23-.21a26.2,26.2,0,0,1-5.12-1,9.07,9.07,0,0,1-4.12-2.28,11.71,11.71,0,0,1-2.45-4.16,18.89,18.89,0,0,1-1-6.53q0-8.85,4.56-12.38t12.89-3.52a116.08,116.08,0,0,1,16,1.2V230.9q0-5-2.24-7.13c-1.48-1.43-3.95-2.15-7.39-2.15H1105v-5.84a105,105,0,0,1,15.81-1.12q9.1,0,13.83,3.31t4.73,12.68Zm-24.4-21.23q-8.43,0-8.42,7.39v1.81c0,2.41.63,4.15,1.89,5.24s3.26,1.63,6,1.63h16.76V240.18Z"/><path class="cls-14" d="M1179.48,262.18V232.71q0-6.19-2.15-8.55t-7.82-2.37h-10.4v40.39h-8.33v-45.8a138.33,138.33,0,0,1,19.33-1.72q7.74,0,11.34,2a73.06,73.06,0,0,1,16.59-2.06c1.78,0,3.25,0,4.43.13a22,22,0,0,1,4.59,1,12,12,0,0,1,4.56,2.41,13.21,13.21,0,0,1,3.05,4.68,19.42,19.42,0,0,1,1.33,7.61v31.79h-8.25v-29.3c0-4.12-.86-7-2.58-8.55s-4.61-2.36-8.68-2.36h-10.31q1.63,2.84,1.63,8.07v32.14Z"/><path class="cls-2" d="M628.32,93.18c7.79-5.31,14.86-16.75,14.86-29.07V57c0-24-22-37.25-45.13-37.25H500.19c-7.13,0-12.18,4.84-12.18,11.93V159.93a12.36,12.36,0,0,0,12.6,12.77h91.67c47.36,0,53.18-32.9,53.18-42.5v-7c0-10.82-6.92-23.93-17.14-30m-11.84,34.75c0,16.25-14.36,20.75-23.37,20.75H506.83s7.59-19.73,8.72-22.39a15.69,15.69,0,0,0,1.27-6.6v-76h76.49c11.47,0,20.88,4.91,20.88,18.67v.89c0,13.56-9.61,18-20.88,18H543.76c-3.89,0-6.08-.08-7.81,4.42-1.29,3.38-7.29,19.17-7.29,19.17h64.45c12.24,0,23.37,5,23.37,20.89Z"/><path class="cls-2" d="M1147.11,19.74h-78.69c-7.5,0-12,5.8-12,12.6V160.67c0,6.69,3.17,12,11.56,12h75.6c51.33,0,72.44-21.18,72.44-57.71v-34c0-43.65-26.44-61.2-68.89-61.2m39.7,97.92c0,25.41-23.78,31-43.67,31h-67.4s7-19.28,7.86-21.44a18.79,18.79,0,0,0,2-8.58V43.74H1144c25.19,0,42.84,8.62,42.84,35.31Z"/><path class="cls-2" d="M764.83,16.2c-61.42,0-81.1,30.28-81.1,63v50.05c0,32.79,19.68,43.41,45.52,43.41l72.71,0c29.23,0,44.41-18.52,44.41-43.38v-50c0-32.76-20.12-63-81.54-63M817,127.31c0,15.36-9.73,20.86-27.24,21.33-1.26,0-86.81,0-86.81,0s7.1-19.15,8.25-21.86A16.79,16.79,0,0,0,713,119.2v-40c0-16.49,7.67-39,52.06-39S817,62.75,817,79.24Z"/><path class="cls-2" d="M1018,148.68H911s6.6-18.31,7.87-21.39c1.14-2.75,2-4.46,2-8.55V19.58H891.65V160.81c0,8.82,6.5,11.89,14,11.89H1018Z"/><polygon class="cls-15" points="124.4 -0.3 200.84 48.79 280.07 -0.3 124.4 -0.3"/><polygon class="cls-2" points="-0.07 179.76 81.12 205.7 100.08 115.41 100.08 115.41 -0.07 179.76"/><g class="cls-16"><rect class="cls-2" x="-5.53" y="109.27" width="111.06" height="102.57" transform="translate(-20.49 7.88) rotate(-7.49)"/></g><polygon class="cls-3" points="-0.07 179.76 63.65 288.75 81.12 205.7 -0.07 179.76"/><g class="cls-17"><rect class="cls-18" x="-23.11" y="180.12" width="127.26" height="108.27" transform="translate(-195.77 208.11) rotate(-73.87)"/></g><polygon class="cls-3" points="-0.07 179.76 100.08 115.41 124.4 -0.3 124.4 -0.3 -0.07 179.76"/><g class="cls-19"><rect class="cls-18" x="-0.07" y="-0.3" width="124.47" height="180.06"/></g><polygon class="cls-2" points="323.54 205.71 404.78 179.76 304.45 115.23 323.54 205.71"/><g class="cls-20"><rect class="cls-2" x="297.88" y="100.27" width="113.47" height="120.41" transform="translate(107.39 461.11) rotate(-74.92)"/></g><polygon class="cls-3" points="323.54 205.71 341.05 288.75 404.78 179.76 323.54 205.71"/><g class="cls-21"><rect class="cls-3" x="320.37" y="177.43" width="87.58" height="113.64" transform="translate(-13.29 22.08) rotate(-3.41)"/></g><polygon class="cls-3" points="280.07 -0.3 304.45 115.23 404.78 179.76 280.07 -0.3"/><g class="cls-22"><rect class="cls-3" x="280.07" y="-0.3" width="124.71" height="180.06"/></g><polygon class="cls-15" points="404.78 179.76 202.34 244.44 341.05 288.75 404.78 179.76"/><polygon class="cls-23" points="124.4 -0.3 200.84 48.79 -0.07 179.76 124.4 -0.3"/><polygon class="cls-15" points="-0.07 179.76 202.34 244.44 63.65 288.75 -0.07 179.76"/><polygon class="cls-23" points="200.84 48.79 404.78 179.76 280.07 -0.3 200.84 48.79"/><polygon class="cls-3" points="63.65 288.75 63.65 288.75 341.05 288.75 202.34 244.44 63.65 288.75"/><g class="cls-13"><polygon class="cls-24" points="63.65 288.75 63.65 288.75 341.05 288.75 202.34 244.44 63.65 288.75"/></g></svg>